# xmcd
#
# Track frame offsets:
#	150
#	15970
#	33190
#	52672
#	72735
#	89292
#	105057
#	125122
#	140275
#	154675
#	172362
#	189310
#
# Disc length: 2804 seconds
#
# Revision: 1
# Processed by: cddbd v1.5.1PL0 Copyright (c) Steve Scherf et al.
# Submitted via: audiograbber 1.83.01
#
DISCID=930af20c
DTITLE=Liz Masterson and Sean Blackburn - Swing With The Music
DYEAR=1900
DGENRE=Bluegrass
TTITLE0=Swing With The Music
TTITLE1=Into Each Life Some Rain Must Fall
TTITLE2=Jingle In My Jeans
TTITLE3=Prescription For The Blues
TTITLE4=I'm Beginning To See The Light
TTITLE5=Please Don't Talk About Me When I'm Gone
TTITLE6=Any Time
TTITLE7=Someday (You'll Want Me To Want You)
TTITLE8=Gues Who's In Town
TTITLE9=I'm Gonna Sit Right Down And Write Myself A Letter
TTITLE10=Old Fashioned Love
TTITLE11=We'll Meet Again
EXTD=
EXTT0=
EXTT1=
EXTT2=
EXTT3=
EXTT4=
EXTT5=
EXTT6=
EXTT7=
EXTT8=
EXTT9=
EXTT10=
EXTT11=
PLAYORDER=
